<mxfile host="app.diagrams.net" agent="Mozilla/5.0 (Windows NT 10.0; Win64; x64) AppleWebKit/537.36 (KHTML, like Gecko) Chrome/138.0.0.0 YaBrowser/25.8.0.0 Safari/537.36" version="28.2.3">
  <diagram name="Страница — 1" id="-sGSWAxc-1u0hoBd0YHR">
    <mxGraphModel dx="1188" dy="663" grid="1" gridSize="10" guides="1" tooltips="1" connect="1" arrows="1" fold="1" page="1" pageScale="1" pageWidth="827" pageHeight="1169" math="0" shadow="0">
      <root>
        <mxCell id="0" />
        <mxCell id="1" parent="0" />
        <mxCell id="d_Jdk-wgDSRykYVPQsLu-21" style="edgeStyle=orthogonalEdgeStyle;rounded=0;orthogonalLoop=1;jettySize=auto;html=1;exitX=0.5;exitY=0;exitDx=0;exitDy=0;exitPerimeter=0;startArrow=classic;startFill=1;" edge="1" parent="1" source="d_Jdk-wgDSRykYVPQsLu-3" target="d_Jdk-wgDSRykYVPQsLu-2">
          <mxGeometry relative="1" as="geometry" />
        </mxCell>
        <mxCell id="d_Jdk-wgDSRykYVPQsLu-3" value="prod" style="shape=cylinder3;whiteSpace=wrap;html=1;boundedLbl=1;backgroundOutline=1;size=15;" vertex="1" parent="1">
          <mxGeometry x="80" y="290" width="60" height="80" as="geometry" />
        </mxCell>
        <mxCell id="d_Jdk-wgDSRykYVPQsLu-6" value="ETL" style="shape=singleArrow;whiteSpace=wrap;html=1;arrowWidth=0.4;arrowSize=0.4;" vertex="1" parent="1">
          <mxGeometry x="170" y="300" width="80" height="60" as="geometry" />
        </mxCell>
        <mxCell id="d_Jdk-wgDSRykYVPQsLu-11" style="edgeStyle=orthogonalEdgeStyle;rounded=0;orthogonalLoop=1;jettySize=auto;html=1;" edge="1" parent="1" source="d_Jdk-wgDSRykYVPQsLu-9" target="d_Jdk-wgDSRykYVPQsLu-10">
          <mxGeometry relative="1" as="geometry" />
        </mxCell>
        <mxCell id="d_Jdk-wgDSRykYVPQsLu-9" value="DWH" style="shape=cylinder3;whiteSpace=wrap;html=1;boundedLbl=1;backgroundOutline=1;size=15;" vertex="1" parent="1">
          <mxGeometry x="260" y="275" width="140" height="110" as="geometry" />
        </mxCell>
        <mxCell id="d_Jdk-wgDSRykYVPQsLu-10" value="BI" style="rounded=0;whiteSpace=wrap;html=1;" vertex="1" parent="1">
          <mxGeometry x="450" y="130" width="120" height="60" as="geometry" />
        </mxCell>
        <mxCell id="d_Jdk-wgDSRykYVPQsLu-18" value="" style="line;strokeWidth=2;direction=south;html=1;opacity=30;" vertex="1" parent="1">
          <mxGeometry x="200" y="342" width="10" height="98" as="geometry" />
        </mxCell>
        <mxCell id="d_Jdk-wgDSRykYVPQsLu-20" value="" style="line;strokeWidth=2;direction=south;html=1;opacity=30;" vertex="1" parent="1">
          <mxGeometry x="420" y="240" width="10" height="200" as="geometry" />
        </mxCell>
        <mxCell id="d_Jdk-wgDSRykYVPQsLu-22" value="" style="line;strokeWidth=2;direction=south;html=1;opacity=30;" vertex="1" parent="1">
          <mxGeometry x="200" y="240" width="10" height="78" as="geometry" />
        </mxCell>
        <mxCell id="d_Jdk-wgDSRykYVPQsLu-23" value="Source" style="text;html=1;align=center;verticalAlign=middle;resizable=0;points=[];autosize=1;strokeColor=none;fillColor=none;" vertex="1" parent="1">
          <mxGeometry x="90" y="398" width="60" height="30" as="geometry" />
        </mxCell>
        <mxCell id="d_Jdk-wgDSRykYVPQsLu-24" value="Storage" style="text;html=1;align=center;verticalAlign=middle;resizable=0;points=[];autosize=1;strokeColor=none;fillColor=none;" vertex="1" parent="1">
          <mxGeometry x="290" y="408" width="70" height="30" as="geometry" />
        </mxCell>
        <mxCell id="d_Jdk-wgDSRykYVPQsLu-25" value="Business" style="text;html=1;align=center;verticalAlign=middle;resizable=0;points=[];autosize=1;strokeColor=none;fillColor=none;" vertex="1" parent="1">
          <mxGeometry x="475" y="408" width="70" height="30" as="geometry" />
        </mxCell>
        <mxCell id="d_Jdk-wgDSRykYVPQsLu-26" value="" style="swimlane;startSize=0;" vertex="1" parent="1">
          <mxGeometry x="40" y="70" width="540" height="140" as="geometry" />
        </mxCell>
        <mxCell id="d_Jdk-wgDSRykYVPQsLu-2" value="Store" style="rounded=0;whiteSpace=wrap;html=1;" vertex="1" parent="d_Jdk-wgDSRykYVPQsLu-26">
          <mxGeometry x="10" y="60" width="120" height="60" as="geometry" />
        </mxCell>
        <mxCell id="d_Jdk-wgDSRykYVPQsLu-27" value="WEB APPLICATION" style="text;html=1;align=center;verticalAlign=middle;resizable=0;points=[];autosize=1;strokeColor=none;fillColor=none;" vertex="1" parent="d_Jdk-wgDSRykYVPQsLu-26">
          <mxGeometry x="205" width="130" height="30" as="geometry" />
        </mxCell>
      </root>
    </mxGraphModel>
  </diagram>
</mxfile>
